<svg xmlns="http://www.w3.org/2000/svg" xmlns:xlink="http://www.w3.org/1999/xlink" contentStyleType="text/css" data-diagram-type="STATE" height="1068px" preserveAspectRatio="none" style="width:1048px;height:1068px;background:#FFFFFF;" version="1.1" viewBox="0 0 1048 1068" width="1048.5px" zoomAndPan="magnify"><title>Loan Application - Status Lifecycle</title><defs/><g><g class="header" data-source-line="2"><text fill="#607D8B" font-family="Arial" font-size="16.5" lengthAdjust="spacing" textLength="328.2678" x="348.2322" y="15.9844">v0.1 &#183; Draft &#183; 2026-10-09 &#183; Owner: Product</text></g><g class="title" data-source-line="1"><text fill="#1F3A57" font-family="Arial" font-size="30" font-weight="bold" lengthAdjust="spacing" textLength="510.4248" x="83.0376" y="65.5269">Loan Application - Status Lifecycle</text></g><g id="Escalated"><rect fill="#FDECEA" height="75" rx="6" ry="6" style="stroke:#C62828;stroke-width:0.75;" width="119.4639" x="59.1042" y="380.2632"/><line style="stroke:#C62828;stroke-width:0.75;" x1="59.1042" x2="178.5681" y1="418.8574" y2="418.8574"/><text fill="#263238" font-family="Arial" font-size="19.5" lengthAdjust="spacing" textLength="89.4639" x="74.1042" y="406.6538">Escalated</text></g><ellipse cx="669.6042" cy="122.2632" fill="#2E7D32" rx="15" ry="15" style="stroke:#222222;stroke-width:1.5;"/><g id="Draft"><rect fill="#EAF2FB" height="75" rx="6" ry="6" style="stroke:#2F5D8A;stroke-width:0.75;" width="75.9602" x="631.3542" y="224.2632"/><line style="stroke:#2F5D8A;stroke-width:0.75;" x1="631.3542" x2="707.3144" y1="262.8574" y2="262.8574"/><text fill="#263238" font-family="Arial" font-size="19.5" lengthAdjust="spacing" textLength="45.9602" x="646.3542" y="250.6538">Draft</text></g><g id="Submitted"><rect fill="#EAF2FB" height="75" rx="6" ry="6" style="stroke:#2F5D8A;stroke-width:0.75;" width="123.8533" x="554.8542" y="380.2632"/><line style="stroke:#2F5D8A;stroke-width:0.75;" x1="554.8542" x2="678.7075" y1="418.8574" y2="418.8574"/><text fill="#263238" font-family="Arial" font-size="19.5" lengthAdjust="spacing" textLength="93.8533" x="569.8542" y="406.6538">Submitted</text></g><g id="InReview"><rect fill="#EAF2FB" height="75" rx="6" ry="6" style="stroke:#2F5D8A;stroke-width:0.75;" width="113.6843" x="179.1042" y="536.2632"/><line style="stroke:#2F5D8A;stroke-width:0.75;" x1="179.1042" x2="292.7886" y1="574.8574" y2="574.8574"/><text fill="#263238" font-family="Arial" font-size="19.5" lengthAdjust="spacing" textLength="83.6843" x="194.1042" y="562.6538">InReview</text></g><g id="Approved"><rect fill="#EAF2FB" height="75" rx="6" ry="6" style="stroke:#2F5D8A;stroke-width:0.75;" width="120.635" x="177.6042" y="692.2632"/><line style="stroke:#2F5D8A;stroke-width:0.75;" x1="177.6042" x2="298.2392" y1="730.8574" y2="730.8574"/><text fill="#263238" font-family="Arial" font-size="19.5" lengthAdjust="spacing" textLength="90.635" x="192.6042" y="718.6538">Approved</text></g><g id="Rejected"><rect fill="#EAF2FB" height="75" rx="6" ry="6" style="stroke:#2F5D8A;stroke-width:0.75;" width="110.8374" x="386.1042" y="794.2632"/><line style="stroke:#2F5D8A;stroke-width:0.75;" x1="386.1042" x2="496.9416" y1="832.8574" y2="832.8574"/><text fill="#263238" font-family="Arial" font-size="19.5" lengthAdjust="spacing" textLength="80.8374" x="401.1042" y="820.6538">Rejected</text></g><g id="Disbursed"><rect fill="#EAF2FB" height="75" rx="6" ry="6" style="stroke:#2F5D8A;stroke-width:0.75;" width="123.501" x="228.6042" y="896.2632"/><line style="stroke:#2F5D8A;stroke-width:0.75;" x1="228.6042" x2="352.1052" y1="934.8574" y2="934.8574"/><text fill="#263238" font-family="Arial" font-size="19.5" lengthAdjust="spacing" textLength="93.501" x="243.6042" y="922.6538">Disbursed</text></g><g id="Withdrawn"><rect fill="#EAF2FB" height="75" rx="6" ry="6" style="stroke:#2F5D8A;stroke-width:0.75;" width="129.5566" x="599.1042" y="536.2632"/><line style="stroke:#2F5D8A;stroke-width:0.75;" x1="599.1042" x2="728.6609" y1="574.8574" y2="574.8574"/><text fill="#263238" font-family="Arial" font-size="19.5" lengthAdjust="spacing" textLength="99.5566" x="614.1042" y="562.6538">Withdrawn</text></g><ellipse cx="441.6042" cy="1043.2632" fill="none" rx="16.5" ry="16.5" style="stroke:#37474F;stroke-width:1.5;"/><ellipse cx="441.6042" cy="1043.2632" fill="#222222" rx="9" ry="9" style="stroke:#37474F;stroke-width:1.5;"/><g class="link" data-entity-1=".start." data-entity-2="Draft" data-uid="lnk4" id="link_.start._Draft"><polygon fill="#37474F" points="669.6042,223.8967,675.6042,210.3967,669.6042,216.3967,663.6042,210.3967,669.6042,223.8967" style="stroke:#37474F;stroke-width:1.5;"/><path d="M669.6042,143.6711 C669.6042,163.7374 669.6042,188.7658 669.6042,214.8967" fill="none" style="stroke:#37474F;stroke-width:1.8;"/><text fill="#37474F" font-family="Arial" font-size="18" lengthAdjust="spacing" textLength="230.8184" x="672.6042" y="190.7007">Applicant starts application</text></g><g class="link" data-entity-1="Draft" data-entity-2="Submitted" data-uid="lnk6" id="link_Draft_Submitted"><polygon fill="#37474F" points="582.1378,380.0544,579.2551,365.565,577.813,373.9269,569.4511,372.4847,582.1378,380.0544" style="stroke:#37474F;stroke-width:1.5;"/><path d="M631.1011,277.3025 C609.5787,287.3667 584.6318,303.2532 572.1042,326.2632 C562.5816,343.7539 565.2739,356.1613 576.948,372.7014" fill="none" style="stroke:#37474F;stroke-width:1.8;"/><text fill="#37474F" font-family="Arial" font-size="18" lengthAdjust="spacing" textLength="59.2295" x="575.1042" y="346.7007">Submit</text></g><g class="link" data-entity-1="Submitted" data-entity-2="InReview" data-uid="lnk8" id="link_Submitted_InReview"><polygon fill="#37474F" points="293.0811,536.1091,307.6983,533.9669,299.4206,532.1014,301.286,523.8237,293.0811,536.1091" style="stroke:#37474F;stroke-width:1.5;"/><path d="M554.5202,430.5671 C505.7247,440.6346 436.936,457.6159 380.1042,482.2632 C375.2865,484.3526 338.8213,507.1931 300.6885,531.2999" fill="none" style="stroke:#37474F;stroke-width:1.8;"/><text fill="#37474F" font-family="Arial" font-size="18" lengthAdjust="spacing" textLength="245.4521" x="383.1042" y="502.7007">Completeness check passed</text></g><g class="link" data-entity-1="Submitted" data-entity-2="Draft" data-uid="lnk9" id="link_Submitted_Draft"><polygon fill="#37474F" points="657.1625,299.522,647.1057,310.3439,654.7282,306.616,658.4561,314.2386,657.1625,299.522" style="stroke:#37474F;stroke-width:1.5;"/><path d="M629.6386,379.7344 C637.966,355.466 645.9331,332.2475 654.2414,308.0348" fill="none" style="stroke:#37474F;stroke-width:1.8;"/><text fill="#37474F" font-family="Arial" font-size="18" lengthAdjust="spacing" textLength="167.2207" x="648.6042" y="346.7007">Documents missing</text></g><g class="link" data-entity-1="InReview" data-entity-2="Approved" data-uid="lnk11" id="link_InReview_Approved"><polygon fill="#37474F" points="237.2461,691.7344,243.1135,678.1762,237.1726,684.2347,231.114,678.2938,237.2461,691.7344" style="stroke:#37474F;stroke-width:1.5;"/><path d="M236.4597,611.522 C236.6971,635.7347 236.9199,658.4665 237.1579,682.7348" fill="none" style="stroke:#37474F;stroke-width:1.8;"/><text fill="#37474F" font-family="Arial" font-size="18" lengthAdjust="spacing" textLength="165.7793" x="240.6042" y="658.7007">Decision = approve</text></g><g class="link" data-entity-1="InReview" data-entity-2="Rejected" data-uid="lnk13" id="link_InReview_Rejected"><polygon fill="#37474F" points="445.4498,794.0164,452.2144,780.8829,445.8801,786.5288,440.2342,780.1944,445.4498,794.0164" style="stroke:#37474F;stroke-width:1.5;"/><path d="M293.4707,581.3909 C331.7945,588.5881 380.21,604.2373 408.6042,638.2632 C445.2267,682.1492 448.394,742.7816 445.9662,785.0312" fill="none" style="stroke:#37474F;stroke-width:1.8;"/><text fill="#37474F" font-family="Arial" font-size="18" lengthAdjust="spacing" textLength="143.7451" x="428.1042" y="658.7007">Decision = reject</text></g><g class="link" data-entity-1="InReview" data-entity-2="Escalated" data-uid="lnk14" id="link_InReview_Escalated"><polygon fill="#37474F" points="160.8211,455.4958,166.2581,469.2322,166.1757,460.7473,174.6606,460.6649,160.8211,455.4958" style="stroke:#37474F;stroke-width:1.5;"/><path d="M218.7504,536.1342 C209.785,519.0589 198.0221,498.8357 185.1042,482.2632 C177.8978,473.018 175.7683,470.1555 167.2466,461.7976" fill="none" style="stroke:#37474F;stroke-width:1.8;"/><text fill="#37474F" font-family="Arial" font-size="18" lengthAdjust="spacing" textLength="120.0498" x="206.1042" y="502.7007">SLA breached</text></g><g class="link" data-entity-1="Escalated" data-entity-2="InReview" data-uid="lnk15" id="link_Escalated_InReview"><polygon fill="#37474F" points="178.7567,563.8002,166.4531,555.6228,171.3628,562.5434,164.4422,567.4531,178.7567,563.8002" style="stroke:#37474F;stroke-width:1.5;"/><path d="M58.6209,443.3751 C26.087,459.9745 -3.7542,483.5992 15.6042,509.2632 C35.2639,535.3267 111.3552,552.3434 169.884,562.292" fill="none" style="stroke:#37474F;stroke-width:1.8;"/><text fill="#37474F" font-family="Arial" font-size="18" lengthAdjust="spacing" textLength="158.7393" x="18.6042" y="502.7007">Team lead assigns</text></g><g class="link" data-entity-1="Approved" data-entity-2="Disbursed" data-uid="lnk17" id="link_Approved_Disbursed"><polygon fill="#37474F" points="251.5493,895.796,247.9534,881.467,246.9267,889.89,238.5037,888.8632,251.5493,895.796" style="stroke:#37474F;stroke-width:1.5;"/><path d="M230.289,767.6321 C226.1622,796.1831 223.9676,836.4548 236.1042,869.2632 C239.6028,878.7207 239.6784,880.6292 246.0021,888.7087" fill="none" style="stroke:#37474F;stroke-width:1.8;"/><text fill="#37474F" font-family="Arial" font-size="18" lengthAdjust="spacing" textLength="130.7373" x="239.1042" y="838.7007">Funds released</text></g><g class="link" data-entity-1="Draft" data-entity-2="Withdrawn" data-uid="lnk19" id="link_Draft_Withdrawn"><polygon fill="#37474F" points="728.4146,564.9307,742.8796,567.9328,735.7441,563.341,740.336,556.2055,728.4146,564.9307" style="stroke:#37474F;stroke-width:1.5;"/><path d="M708.1151,267.1868 C744.756,273.1816 798.0441,288.287 824.1042,326.2632 C870.13,393.3342 873.1356,442.196 827.1042,509.2632 C804.9842,541.4918 772.6711,555.3314 737.2101,563.023" fill="none" style="stroke:#37474F;stroke-width:1.8;"/><text fill="#37474F" font-family="Arial" font-size="18" lengthAdjust="spacing" textLength="172.916" x="863.1042" y="424.7007">Applicant withdraws</text></g><g class="link" data-entity-1="Submitted" data-entity-2="Withdrawn" data-uid="lnk20" id="link_Submitted_Withdrawn"><polygon fill="#37474F" points="652.5023,535.7344,654.3174,521.073,650.3214,528.5585,642.836,524.5625,652.5023,535.7344" style="stroke:#37474F;stroke-width:1.5;"/><path d="M628.1241,455.522 C635.4828,479.7347 642.5096,502.855 649.8852,527.1233" fill="none" style="stroke:#37474F;stroke-width:1.8;"/><text fill="#37474F" font-family="Arial" font-size="18" lengthAdjust="spacing" textLength="172.916" x="645.6042" y="502.7007">Applicant withdraws</text></g><g class="link" data-entity-1="Rejected" data-entity-2=".end." data-uid="lnk22" id="link_Rejected_.end."><polygon fill="#37474F" points="441.6042,1026.6588,447.6042,1013.1588,441.6042,1019.1588,435.6042,1013.1588,441.6042,1026.6588" style="stroke:#37474F;stroke-width:1.5;"/><path d="M441.6042,869.3635 C441.6042,915.3332 441.6042,983.8486 441.6042,1017.6588" fill="none" style="stroke:#37474F;stroke-width:1.8;"/></g><g class="link" data-entity-1="Withdrawn" data-entity-2=".end." data-uid="lnk23" id="link_Withdrawn_.end."><polygon fill="#37474F" points="449.6111,1026.7523,460.8917,1017.213,452.8775,1020.001,450.0895,1011.9868,449.6111,1026.7523" style="stroke:#37474F;stroke-width:1.5;"/><path d="M646.4887,611.6487 C611.914,685.0972 531.1922,856.3097 462.6042,999.7632 C458.3358,1008.6908 457.4602,1010.5288 453.5307,1018.6507" fill="none" style="stroke:#37474F;stroke-width:1.8;"/></g><g class="link" data-entity-1="Disbursed" data-entity-2=".end." data-uid="lnk24" id="link_Disbursed_.end."><polygon fill="#37474F" points="425.0597,1031.4691,417.5498,1018.747,418.9526,1027.1155,410.5841,1028.5183,425.0597,1031.4691" style="stroke:#37474F;stroke-width:1.5;"/><path d="M340.973,971.5261 C370.1999,992.3611 397.6576,1011.9349 417.7312,1026.2448" fill="none" style="stroke:#37474F;stroke-width:1.8;"/></g><!--SRC=[ZPTHRzis4CVVzIaux6s02qjsBATe0yYMr1K8kZREi8UX3pHriJbBf4fISRqljlTzifAIRT6IAYb008Vtu_-En-ET8m-KvLZW32KvHUvyxiZhYjpZX1yfsw4Nd4gmB88NB5bpmK2WfRMUm0ikKXLpfZxX350WA4wxxHlwBo1trcrSyvGBzAktc7apMt-BoM5tTbuISVbZ4O4G_7WsplovFsyPBVsV0rLqNjFqlAVam41AvBxn7ClwJ5KArutUjDEaJYcWBK-JBkiv93UU1NU-1VmEE05X4Okf7ovNdKGLjMlPrZXNbBE-xHRItly8Es39gfLsFxwFLssE2nt9cRcV1lCWQZ5sTYtZ9wvWrN6xOUGtATl9olVltTWM-eo5eeJccAcMNXJ4tatODcpBUl5Tk0pisoUAYs6z2kjL2h72MonXMEnAzkgjZ0GMfs6zAzchzwM0OaHm5TQhj85l1J02Z_H5_pBehuuBlUBVXylDXaUfVj1o-NZT2X-b7D9Ngh5snjPH7BlERN5eLfr6bL553jLaIOKKPxphaSRnCd9xDdGyf3QyKVgDN4A8_73cTK3HrMchfPPFp3IOuUpNQ7_cZpHByM0zdQckzcjXVqeWerxZ1UozaYSW2hDTsjdARWTLZTgAT_D5v0StEI47l8CnoQl0ZgJOpJx5KWuVji9wZreYrUXfwOMBQ17VDU50AK6tXOAFXBDo1DXZSgD005Ud7DR3bHon8Xj9zKyBNTrgnELNM7-tCqZlOoc9rakniyIpd3COCxXgj2EeKTFmtJluJg0S_GyFEdcXRbZ1u6Xix5ellAMt77nEGxxQRsl8JrST3tbf5lMGZwxQ6FBHB9Hk7yulkS2x3ACKdtYXaCn0zmBiADEhq2F730LvdbA2pKOqAMKBYSma9IUIWhCl7nvwdRvnqV__eL3W5sK-U5DlCN6da-cz-UkFe_w2_XPz5ZmfY7ASlt_xYYQJXpF-zkA4wGXCuKg4QwzE1HbyKsmpgXGaUalrsQcN3F2HFS4hXQEscy9CGK7v9PdiWHnGhjCEIMFB9OIGaoBJTInHHgNK_siuLp63wGW5VoqzXq2eDEbuRy8qgxVe4_oZMseJ5UNgBHb9WbDiqDlhqQTx3D1M0DQ19qwDDSxu3FgcKtq3I9-CxfXqhc6MHwDoMmXPHXBhmf4w24sR7DGv_OkgVIBmaTrSm_6yAXlP6gAlPpUmlcMdtd1PgQEwh3ZI5ElFil43]--></g></svg>