<svg xmlns="http://www.w3.org/2000/svg" xmlns:xlink="http://www.w3.org/1999/xlink" contentStyleType="text/css" data-diagram-type="SEQUENCE" height="1090.5px" preserveAspectRatio="none" style="width:1153px;height:1090px;background:#FFFFFF;" version="1.1" viewBox="0 0 1153 1090" width="1153.5px" zoomAndPan="magnify"><title>Online Payment - Card Authorisation</title><defs/><g><text fill="#1F3A57" font-family="Arial" font-size="30" font-weight="bold" lengthAdjust="spacing" textLength="537.5098" x="302.4243" y="73.0269">Online Payment - Card Authorisation</text><g><title>Web app</title><rect fill="#FFFFFF" height="646.7285" style="stroke:#90A4AE;stroke-width:1.5;" width="15" x="350.3529" y="256.1367"/></g><g><title>Payment service</title><rect fill="#FFFFFF" height="603.9492" style="stroke:#90A4AE;stroke-width:1.5;" width="15" x="713.0717" y="298.916"/></g><g><title>Card network</title><rect fill="#FFFFFF" height="561.1699" style="stroke:#90A4AE;stroke-width:1.5;" width="15" x="1030.9951" y="341.6953"/></g><rect fill="#F7F9FB" height="528.1699" rx="6" ry="6" style="stroke:#90A4AE;stroke-width:2.25;" width="1111.4561" x="15" y="364.1953"/><path d="M15,563.001 L1126.4561,563.001 L1126.4561,711.9331 A6,6 0 0 1 1120.4561,717.9331 L21,717.9331 A6,6 0 0 1 15,711.9331 L15,563.001" fill="#F7F9FB" style="stroke:none;stroke-width:1.5;"/><path d="M15,717.9331 L1126.4561,717.9331 L1126.4561,886.3652 A6,6 0 0 1 1120.4561,892.3652 L21,892.3652 A6,6 0 0 1 15,886.3652 L15,717.9331" fill="#F7F9FB" style="stroke:none;stroke-width:1.5;"/><g><title>Customer</title><rect fill="#000000" fill-opacity="0.00000" height="761.1021" width="12" x="73.4652" y="210.3574"/><line style="stroke:#90A4AE;stroke-width:0.75;stroke-dasharray:7.5,7.5;" x1="78" x2="78" y1="210.3574" y2="971.4595"/></g><g><title>Web app</title><rect fill="#000000" fill-opacity="0.00000" height="761.1021" width="12" x="351.8529" y="210.3574"/><line style="stroke:#90A4AE;stroke-width:0.75;stroke-dasharray:7.5,7.5;" x1="356.9344" x2="356.9344" y1="210.3574" y2="971.4595"/></g><g><title>Payment service</title><rect fill="#000000" fill-opacity="0.00000" height="761.1021" width="12" x="714.5717" y="210.3574"/><line style="stroke:#90A4AE;stroke-width:0.75;stroke-dasharray:7.5,7.5;" x1="720.3761" x2="720.3761" y1="210.3574" y2="971.4595"/></g><g><title>Ledger</title><rect fill="#000000" fill-opacity="0.00000" height="761.1021" width="12" x="907.5326" y="210.3574"/><line style="stroke:#90A4AE;stroke-width:0.75;stroke-dasharray:7.5,7.5;" x1="912.531" x2="912.531" y1="210.3574" y2="971.4595"/></g><g><title>Card network</title><rect fill="#000000" fill-opacity="0.00000" height="761.1021" width="12" x="1032.4951" y="210.3574"/><line style="stroke:#90A4AE;stroke-width:0.75;stroke-dasharray:7.5,7.5;" x1="1037.5342" x2="1037.5342" y1="210.3574" y2="971.4595"/></g><g class="participant participant-head" data-participant="Customer"><text fill="#263238" font-family="Arial" font-size="19.5" lengthAdjust="spacing" textLength="89.9304" x="30" y="205.6538">Customer</text><ellipse cx="79.4652" cy="109.5132" fill="#EAF2FB" rx="12" ry="12" style="stroke:#2F5D8A;stroke-width:0.75;"/><path d="M79.4652,121.5132 L79.4652,162.0132 M59.9652,133.5132 L98.9652,133.5132 M79.4652,162.0132 L59.9652,184.5132 M79.4652,162.0132 L98.9652,184.5132" fill="none" style="stroke:#2F5D8A;stroke-width:0.75;"/></g><g class="participant participant-tail" data-participant="Customer"><text fill="#263238" font-family="Arial" font-size="19.5" lengthAdjust="spacing" textLength="89.9304" x="30" y="988.8501">Customer</text><ellipse cx="79.4652" cy="1006.3037" fill="#EAF2FB" rx="12" ry="12" style="stroke:#2F5D8A;stroke-width:0.75;"/><path d="M79.4652,1018.3037 L79.4652,1058.8037 M59.9652,1030.3037 L98.9652,1030.3037 M79.4652,1058.8037 L59.9652,1081.3037 M79.4652,1058.8037 L98.9652,1081.3037" fill="none" style="stroke:#2F5D8A;stroke-width:0.75;"/></g><g class="participant participant-head" data-participant="App"><rect fill="#EAF2FB" height="44.5942" rx="6" ry="6" style="stroke:#2F5D8A;stroke-width:0.75;" width="103.8369" x="305.9344" y="164.2632"/><text fill="#263238" font-family="Arial" font-size="19.5" lengthAdjust="spacing" textLength="82.8369" x="316.4344" y="193.6538">Web app</text></g><g class="participant participant-tail" data-participant="App"><rect fill="#EAF2FB" height="44.5942" rx="6" ry="6" style="stroke:#2F5D8A;stroke-width:0.75;" width="103.8369" x="305.9344" y="969.9595"/><text fill="#263238" font-family="Arial" font-size="19.5" lengthAdjust="spacing" textLength="82.8369" x="316.4344" y="999.3501">Web app</text></g><g class="participant participant-head" data-participant="Pay"><rect fill="#EAF2FB" height="44.5942" rx="6" ry="6" style="stroke:#2F5D8A;stroke-width:0.75;" width="174.3911" x="633.3761" y="164.2632"/><text fill="#263238" font-family="Arial" font-size="19.5" lengthAdjust="spacing" textLength="153.3911" x="643.8761" y="193.6538">Payment service</text></g><g class="participant participant-tail" data-participant="Pay"><rect fill="#EAF2FB" height="44.5942" rx="6" ry="6" style="stroke:#2F5D8A;stroke-width:0.75;" width="174.3911" x="633.3761" y="969.9595"/><text fill="#263238" font-family="Arial" font-size="19.5" lengthAdjust="spacing" textLength="153.3911" x="643.8761" y="999.3501">Payment service</text></g><g class="participant participant-head" data-participant="Ledger"><text fill="#263238" font-family="Arial" font-size="19.5" lengthAdjust="spacing" textLength="65.0032" x="876.531" y="205.6538">Ledger</text><path d="M886.5326,132.7632 C886.5326,117.7632 913.5326,117.7632 913.5326,117.7632 C913.5326,117.7632 940.5326,117.7632 940.5326,132.7632 L940.5326,171.7632 C940.5326,186.7632 913.5326,186.7632 913.5326,186.7632 C913.5326,186.7632 886.5326,186.7632 886.5326,171.7632 L886.5326,132.7632" fill="#EAF2FB" style="stroke:#2F5D8A;stroke-width:0.75;"/><path d="M886.5326,132.7632 C886.5326,147.7632 913.5326,147.7632 913.5326,147.7632 C913.5326,147.7632 940.5326,147.7632 940.5326,132.7632" fill="none" style="stroke:#2F5D8A;stroke-width:0.75;"/></g><g class="participant participant-tail" data-participant="Ledger"><text fill="#263238" font-family="Arial" font-size="19.5" lengthAdjust="spacing" textLength="65.0032" x="876.531" y="988.8501">Ledger</text><path d="M886.5326,1008.5537 C886.5326,993.5537 913.5326,993.5537 913.5326,993.5537 C913.5326,993.5537 940.5326,993.5537 940.5326,1008.5537 L940.5326,1047.5537 C940.5326,1062.5537 913.5326,1062.5537 913.5326,1062.5537 C913.5326,1062.5537 886.5326,1062.5537 886.5326,1047.5537 L886.5326,1008.5537" fill="#EAF2FB" style="stroke:#2F5D8A;stroke-width:0.75;"/><path d="M886.5326,1008.5537 C886.5326,1023.5537 913.5326,1023.5537 913.5326,1023.5537 C913.5326,1023.5537 940.5326,1023.5537 940.5326,1008.5537" fill="none" style="stroke:#2F5D8A;stroke-width:0.75;"/></g><g class="participant participant-head" data-participant="Network"><rect fill="#EAF2FB" height="44.5942" rx="6" ry="6" style="stroke:#2F5D8A;stroke-width:0.75;" width="145.9219" x="965.5342" y="164.2632"/><text fill="#263238" font-family="Arial" font-size="19.5" lengthAdjust="spacing" textLength="124.9219" x="976.0342" y="193.6538">Card network</text></g><g class="participant participant-tail" data-participant="Network"><rect fill="#EAF2FB" height="44.5942" rx="6" ry="6" style="stroke:#2F5D8A;stroke-width:0.75;" width="145.9219" x="965.5342" y="969.9595"/><text fill="#263238" font-family="Arial" font-size="19.5" lengthAdjust="spacing" textLength="124.9219" x="976.0342" y="999.3501">Card network</text></g><g><title>Web app</title><rect fill="#FFFFFF" height="646.7285" style="stroke:#90A4AE;stroke-width:1.5;" width="15" x="350.3529" y="256.1367"/></g><g><title>Payment service</title><rect fill="#FFFFFF" height="603.9492" style="stroke:#90A4AE;stroke-width:1.5;" width="15" x="713.0717" y="298.916"/></g><g><title>Card network</title><rect fill="#FFFFFF" height="561.1699" style="stroke:#90A4AE;stroke-width:1.5;" width="15" x="1030.9951" y="341.6953"/></g><g class="message" data-participant-1="Customer" data-participant-2="App"><polygon fill="#37474F" points="332.3529,250.1367,347.3529,256.1367,332.3529,262.1367,338.3529,256.1367" style="stroke:#37474F;stroke-width:1.5;"/><line style="stroke:#37474F;stroke-width:1.8;" x1="79.4652" x2="341.3529" y1="256.1367" y2="256.1367"/><text fill="#37474F" font-family="Arial" font-size="18" lengthAdjust="spacing" textLength="147.2344" x="89.9652" y="248.7949">Confirm payment</text></g><g class="message" data-participant-1="App" data-participant-2="Pay"><polygon fill="#37474F" points="695.0717,292.916,710.0717,298.916,695.0717,304.916,701.0717,298.916" style="stroke:#37474F;stroke-width:1.5;"/><line style="stroke:#37474F;stroke-width:1.8;" x1="365.3529" x2="704.0717" y1="298.916" y2="298.916"/><text fill="#37474F" font-family="Arial" font-size="18" lengthAdjust="spacing" textLength="319.2188" x="375.8529" y="291.5742">Create payment (amount, card token)</text></g><g class="message" data-participant-1="Pay" data-participant-2="Network"><polygon fill="#37474F" points="1012.9951,335.6953,1027.9951,341.6953,1012.9951,347.6953,1018.9951,341.6953" style="stroke:#37474F;stroke-width:1.5;"/><line style="stroke:#37474F;stroke-width:1.8;" x1="728.0717" x2="1021.9951" y1="341.6953" y2="341.6953"/><text fill="#37474F" font-family="Arial" font-size="18" lengthAdjust="spacing" textLength="182.6895" x="738.5717" y="334.3535">Authorisation request</text></g><path d="M21,364.1953 L106.2466,364.1953 L106.2466,375.7896 L91.2466,390.7896 L15,390.7896 L15,370.1953 A6,6 0 0 1 21,364.1953" fill="#F7F9FB" style="stroke:#90A4AE;stroke-width:2.25;"/><rect fill="none" height="528.1699" rx="6" ry="6" style="stroke:#90A4AE;stroke-width:2.25;" width="1111.4561" x="15" y="364.1953"/><text fill="#263238" font-family="Arial" font-size="19.5" font-weight="bold" lengthAdjust="spacing" textLength="23.7466" x="37.5" y="384.5859">alt</text><text fill="#263238" font-family="Arial" font-size="19.5" font-weight="bold" lengthAdjust="spacing" textLength="109.3447" x="128.7466" y="386.0859">[Approved]</text><g class="message" data-participant-1="Network" data-participant-2="Pay"><polygon fill="#37474F" points="744.5717,416.6631,729.5717,422.6631,744.5717,428.6631,738.5717,422.6631" style="stroke:#37474F;stroke-width:1.5;"/><line style="stroke:#37474F;stroke-width:1.8;stroke-dasharray:3,3;" x1="735.5717" x2="1029.4951" y1="422.6631" y2="422.6631"/><text fill="#37474F" font-family="Arial" font-size="18" lengthAdjust="spacing" textLength="186.7939" x="753.5717" y="415.3213">Approved (auth code)</text></g><g class="message" data-participant-1="Pay" data-participant-2="Ledger"><polygon fill="#37474F" points="895.5326,459.4424,910.5326,465.4424,895.5326,471.4424,901.5326,465.4424" style="stroke:#37474F;stroke-width:1.5;"/><line style="stroke:#37474F;stroke-width:1.8;" x1="728.0717" x2="904.5326" y1="465.4424" y2="465.4424"/><text fill="#37474F" font-family="Arial" font-size="18" lengthAdjust="spacing" textLength="140.0449" x="738.5717" y="458.1006">Record payment</text></g><g class="message" data-participant-1="Pay" data-participant-2="App"><polygon fill="#37474F" points="381.8529,502.2217,366.8529,508.2217,381.8529,514.2217,375.8529,508.2217" style="stroke:#37474F;stroke-width:1.5;"/><line style="stroke:#37474F;stroke-width:1.8;stroke-dasharray:3,3;" x1="372.8529" x2="711.5717" y1="508.2217" y2="508.2217"/><text fill="#37474F" font-family="Arial" font-size="18" lengthAdjust="spacing" textLength="166.3594" x="390.8529" y="500.8799">Payment confirmed</text></g><g class="message" data-participant-1="App" data-participant-2="Customer"><polygon fill="#37474F" points="95.9652,545.001,80.9652,551.001,95.9652,557.001,89.9652,551.001" style="stroke:#37474F;stroke-width:1.5;"/><line style="stroke:#37474F;stroke-width:1.8;stroke-dasharray:3,3;" x1="86.9652" x2="348.8529" y1="551.001" y2="551.001"/><text fill="#37474F" font-family="Arial" font-size="18" lengthAdjust="spacing" textLength="112.0957" x="104.9652" y="543.6592">Show receipt</text></g><line style="stroke:#90A4AE;stroke-width:1.5;stroke-dasharray:3,3;" x1="15" x2="1126.4561" y1="564.501" y2="564.501"/><text fill="#263238" font-family="Arial" font-size="19.5" font-weight="bold" lengthAdjust="spacing" textLength="98.4902" x="22.5" y="583.3916">[Declined]</text><g class="message" data-participant-1="Network" data-participant-2="Pay"><polygon fill="#37474F" points="744.5717,614.3745,729.5717,620.3745,744.5717,626.3745,738.5717,620.3745" style="stroke:#37474F;stroke-width:1.5;"/><line style="stroke:#37474F;stroke-width:1.8;stroke-dasharray:3,3;" x1="735.5717" x2="1029.4951" y1="620.3745" y2="620.3745"/><text fill="#37474F" font-family="Arial" font-size="18" lengthAdjust="spacing" textLength="151.1367" x="753.5717" y="613.0327">Declined (reason)</text></g><g class="message" data-participant-1="Pay" data-participant-2="App"><polygon fill="#37474F" points="381.8529,657.1538,366.8529,663.1538,381.8529,669.1538,375.8529,663.1538" style="stroke:#37474F;stroke-width:1.5;"/><line style="stroke:#37474F;stroke-width:1.8;stroke-dasharray:3,3;" x1="372.8529" x2="711.5717" y1="663.1538" y2="663.1538"/><text fill="#37474F" font-family="Arial" font-size="18" lengthAdjust="spacing" textLength="126.5713" x="390.8529" y="655.812">Payment failed</text></g><g class="message" data-participant-1="App" data-participant-2="Customer"><polygon fill="#37474F" points="95.9652,699.9331,80.9652,705.9331,95.9652,711.9331,89.9652,705.9331" style="stroke:#37474F;stroke-width:1.5;"/><line style="stroke:#37474F;stroke-width:1.8;stroke-dasharray:3,3;" x1="86.9652" x2="348.8529" y1="705.9331" y2="705.9331"/><text fill="#37474F" font-family="Arial" font-size="18" lengthAdjust="spacing" textLength="234.8877" x="104.9652" y="698.5913">Show error and retry option</text></g><line style="stroke:#90A4AE;stroke-width:1.5;stroke-dasharray:3,3;" x1="15" x2="1126.4561" y1="719.4331" y2="719.4331"/><text fill="#263238" font-family="Arial" font-size="19.5" font-weight="bold" lengthAdjust="spacing" textLength="354.5991" x="22.5" y="738.3237">[No response within 10 s (exception)]</text><g class="message" data-participant-1="Pay" data-participant-2="Pay"><line style="stroke:#37474F;stroke-width:1.8;" x1="728.0717" x2="791.0717" y1="775.3066" y2="775.3066"/><line style="stroke:#37474F;stroke-width:1.8;" x1="791.0717" x2="791.0717" y1="775.3066" y2="794.8066"/><line style="stroke:#37474F;stroke-width:1.8;" x1="729.5717" x2="791.0717" y1="794.8066" y2="794.8066"/><polygon fill="#37474F" points="744.5717,788.8066,729.5717,794.8066,744.5717,800.8066,738.5717,794.8066" style="stroke:#37474F;stroke-width:1.5;"/><text fill="#37474F" font-family="Arial" font-size="18" lengthAdjust="spacing" textLength="141.9609" x="738.5717" y="767.9648">Mark as pending</text></g><g class="message" data-participant-1="Pay" data-participant-2="App"><polygon fill="#37474F" points="381.8529,831.5859,366.8529,837.5859,381.8529,843.5859,375.8529,837.5859" style="stroke:#37474F;stroke-width:1.5;"/><line style="stroke:#37474F;stroke-width:1.8;stroke-dasharray:3,3;" x1="372.8529" x2="711.5717" y1="837.5859" y2="837.5859"/><text fill="#37474F" font-family="Arial" font-size="18" lengthAdjust="spacing" textLength="148.7725" x="390.8529" y="830.2441">Payment pending</text></g><g class="message" data-participant-1="App" data-participant-2="Customer"><polygon fill="#37474F" points="95.9652,874.3652,80.9652,880.3652,95.9652,886.3652,89.9652,880.3652" style="stroke:#37474F;stroke-width:1.5;"/><line style="stroke:#37474F;stroke-width:1.8;stroke-dasharray:3,3;" x1="86.9652" x2="348.8529" y1="880.3652" y2="880.3652"/><text fill="#37474F" font-family="Arial" font-size="18" lengthAdjust="spacing" textLength="199.0195" x="104.9652" y="873.0234">Show "we'll notify you"</text></g><path d="M622.5,916.3652 L622.5,941.8652 A6,6 0 0 0 628.5,947.8652 L1129.5,947.8652 A6,6 0 0 0 1135.5,941.8652 L1135.5,925.3652 L1120.5,910.3652 L628.5,910.3652 A6,6 0 0 0 622.5,916.3652" fill="#FFFDE7" style="stroke:#B7791F;stroke-width:0.75;"/><path d="M1120.5,910.3652 L1120.5,922.3652 A3,3 0 0 0 1123.5,925.3652 L1135.5,925.3652 L1120.5,910.3652" fill="#FFFDE7" style="stroke:#B7791F;stroke-width:0.75;"/><text fill="#263238" font-family="Arial" font-size="19.5" lengthAdjust="spacing" textLength="482.3584" x="631.5" y="936.7559">Authorisation timeout is a business rule: 10 seconds.</text><text fill="#607D8B" font-family="Arial" font-size="16.5" lengthAdjust="spacing" textLength="328.2678" x="814.0906" y="23.4844">v0.1 &#183; Draft &#183; 2026-10-09 &#183; Owner: Product</text><!--SRC=[ZPVDRkCs4CVlUeffUcW2R09BTcmdM0IGFzGMIBFRPekUQMbi4vP8bQBiTL-izpvPXv8jqvOYEK00cVFZVuR36LBADboaJB44efI3EnWuMJMIhLaaTroiOCdY32sBahc8fb89L32snYDSiZpMWHJwZIK8lk8iRhQ_ytyGt7wpSIfZgU17RzZt-hR-WeMRrS5vGGJ5dqNuIidTmTWV3KQ3cj7I_nWee_CkJT_MFDm8p39m7pp7idxZEiPgejThDEbzZB2GSTHaFOJa1dt_SMG1lo2BK5d4i3UQZIUDH1crQzccBDLSYhRf5bAV_ueh5D6ablPHy1HCwfnK5Cc1UUhv0tzUO-piMiOtgN7IiBkp-UYIifrCHgCdDx25lZAbUSXJ9dHDR-u7tbdODcpBUi7ZREpRknzggRhrIgnLQSOqMx0CkyKgibLlOYIOsdVhLMIhtkyvvbS4LsAjIk_uTuuYn5U-f7-1xTLnf2VoUtUvsV1LgZ-JN7gzRebVfJpZMqvOFMFJUH2updbn4AltLvLHINRLP47DE4jaKvC6mNZkjaneQAGw_AwfHuuXp4UpljS0pIkdjIErQ35pm7Hd_uIsPtx7avXrrjE1QZf-BUpF3CEhkl48jcx97nXg9bPnur5sVb6TK5lnSJ2SZ_opd8GRji9habU23Kcn3_kOPLdtOakiTQa5KbuzDRtPS3uC7YzXNsl55xd6NqCfYYl0lYRVDIgKUf_YjBkIvo9FhgJQRmkgRdt5vfTO-sbdaDPcAOXQfzXPaaag1LvpSPtGXg2kkWq_VyRl8HPN_yiB9Mz61vRVUJLUp9eElR4txcodBb_rtkhoqrJ7NLukYxhBHrDjTFcuB9Hc7yuFgMAhX47CzZBNa2L8Pm5pj3chu8k8wRQa3TWdjC5mJszeAW8_rskfUCQCbhCk6W-slGSN_liNPeejjNdmUjxmtktTzvxChoyxUa5_XgzAHdce7OUPrnEOvfcM2IedFMqntFo52s1fUWCi0pzDput7M39KMnvY0T6O4nrUKU3c5QCLgi9GFfuB54iGg7TIRGhehNnsd6CqSFzY_C8prRPOSfL0MZerKVCjfRK8oo14adD3AZJZ1n1kwLhBXVu4eV6cvGR5tMcsYTTCeza7vwHmbbLGvaxFB8zLb2pMnhsIMumSg0Jkgr2EHWg2926K4TuHU71OfeGmElMfEAgb7O1gwSSyXsKA2b_5Yece4lKCxskves13vAbsa3xDO8QXAPhcs8v6kALyPLBSVUXtoNZSwXJfAqW14n6vrseFiYZjCeOtIOCP7KlqlEDwpGMuFSZWjce1AoDbPByn2fIg8QKF0_hE_32ka_sZm6vs-5CSWv2QB_T0NNNZq1mdmjfUMaD52UDPVJcaW40xgOprKpKBBaf5ymHDw_8C62poZ1TVXIgFyRbODUspYB874uG92ly7]--></g></svg>